HIERARCHY
ROOT Hips
{
  OFFSET 34.7684 99.0961 -7.34144
  CHANNELS 6 Xposition Yposition Zposition Zrotation Xrotation Yrotation
  JOINT spine
  {
    OFFSET 0 8.81705 0.507024
    CHANNELS 3 Zrotation Xrotation Yrotation
    JOINT spine1
    {
      OFFSET 0 10.7766 0
      CHANNELS 3 Zrotation Xrotation Yrotation
      JOINT spine2
      {
        OFFSET 0 10.3259 0
        CHANNELS 3 Zrotation Xrotation Yrotation
        JOINT Neck
        {
          OFFSET 0 26.511 1.26395
          CHANNELS 3 Zrotation Xrotation Yrotation
          JOINT Head
          {
            OFFSET 0 8.00966 0
            CHANNELS 3 Zrotation Xrotation Yrotation
            End Site
            {
              OFFSET 0 19.3879 -6.39386
            }
          }
        }
        JOINT RightShoulder
        {
          OFFSET -4.34795 11.1512 -0.605422
          CHANNELS 3 Zrotation Xrotation Yrotation
          JOINT RightArm
          {
            OFFSET 0 14.6258 0
            CHANNELS 3 Zrotation Xrotation Yrotation
            JOINT RightArmRoll
            {
              OFFSET 0 7.3834 0
              CHANNELS 3 Zrotation Xrotation Yrotation
              JOINT RightForeArm
              {
                OFFSET 0 21.5052 0
                CHANNELS 3 Zrotation Xrotation Yrotation
                JOINT RightForeArmRoll
                {
                  OFFSET 0 8.28532 0
                  CHANNELS 3 Zrotation Xrotation Yrotation
                  JOINT RightHand
                  {
                    OFFSET 0 16.6268 0
                    CHANNELS 3 Zrotation Xrotation Yrotation
                    End Site
                    {
                      OFFSET 0 0 0
                    }
                  }
                }
              }
            }
          }
        }
        JOINT LeftShoulder
        {
          OFFSET 4.34795 11.1512 -0.605422
          CHANNELS 3 Zrotation Xrotation Yrotation
          JOINT LeftArm
          {
            OFFSET 0 14.6258 0
            CHANNELS 3 Zrotation Xrotation Yrotation
            JOINT LeftArmRoll
            {
              OFFSET 0 7.3834 0
              CHANNELS 3 Zrotation Xrotation Yrotation
              JOINT LeftForeArm
              {
                OFFSET 0 21.5052 0
                CHANNELS 3 Zrotation Xrotation Yrotation
                JOINT LeftForeArmRoll
                {
                  OFFSET 0 8.28532 0
                  CHANNELS 3 Zrotation Xrotation Yrotation
                  JOINT LeftHand
                  {
                    OFFSET 0 16.6268 0
                    CHANNELS 3 Zrotation Xrotation Yrotation
                    End Site
                    {
                      OFFSET 0 0 0
                    }
                  }
                }
              }
            }
          }
        }
      }
    }
  }
  JOINT RightUpLeg
  {
    OFFSET -7.8151 -1.43309 -1.20217
    CHANNELS 3 Zrotation Xrotation Yrotation
    JOINT RightUpLegRoll
    {
      OFFSET 0 19.4959 0
      CHANNELS 3 Zrotation Xrotation Yrotation
      JOINT RightLeg
      {
        OFFSET 0 -24.1427 0
        CHANNELS 3 Zrotation Xrotation Yrotation
        JOINT RightLegRoll
        {
          OFFSET 0 24.2217 0
          CHANNELS 3 Zrotation Xrotation Yrotation
          JOINT RightFoot
          {
            OFFSET 0 20.1605 0
            CHANNELS 3 Zrotation Xrotation Yrotation
            JOINT RightToeBase
            {
              OFFSET 0 16.8532 0
              CHANNELS 3 Zrotation Xrotation Yrotation
              End Site
              {
                OFFSET 0.00714343 8.16187 -0.94078
              }
            }
          }
        }
      }
    }
  }
  JOINT LeftUpLeg
  {
    OFFSET 7.8151 -1.43309 -1.20217
    CHANNELS 3 Zrotation Xrotation Yrotation
    JOINT LeftUpLegRoll
    {
      OFFSET 0 19.496 0
      CHANNELS 3 Zrotation Xrotation Yrotation
      JOINT LeftLeg
      {
        OFFSET 0 24.1426 0
        CHANNELS 3 Zrotation Xrotation Yrotation
        JOINT LeftLegRoll
        {
          OFFSET 0 24.4456 0
          CHANNELS 3 Zrotation Xrotation Yrotation
          JOINT LeftFoot
          {
            OFFSET 0 19.9366 0
            CHANNELS 3 Zrotation Xrotation Yrotation
            JOINT LeftToeBase
            {
              OFFSET 0 16.8532 0
              CHANNELS 3 Zrotation Xrotation Yrotation
              End Site
              {
                OFFSET -0.0320138 8.16186 -0.940781
              }
            }
          }
        }
      }
    }
  }
}
MOTION
Frames: 12
Frame Time: 0.00208333
42.7133 83.1637 0.342689 -0.973491 2.14643 8.17476 -0.195678 -1.57669 0.337255 -0.385152 0.84829 0.694407 -0.393702 2.49328 0.701168 -2.9907 7.41844 -3.46318 4.08551 -2.82063 -3.52545 -2.39117 -16.5696 -18.5592 3.46384 18.5177 73.0878 -3.51708e-006 7.00638e-007 -3.04664e-007 -6.20371 11.0012 1.40882 3.48565e-006 -1.89985e-008 -3.00029 8.02891 -4.95145 0.697688 -13.381 -12.1545 9.01948 6.73933 9.64953 -70.3537 -1.83608e-005 1.50432e-006 5.40462e-007 8.6167 13.1058 -0.19634 6.56333e-006 -2.52915e-006 2.99999 -8.02889 -4.95146 -0.69769 147.813 15.6425 16.3651 180 7.01664e-015 179.737 -174.23 50.9742 175.365 -7.54534e-008 2.19109e-006 2.12723 -76.5336 86.3391 92.9725 8.16409 25.7139 -2.92798 -148.679 25.7787 -14.7089 4.54188e-006 -4.6773e-006 -0.194288 8.99601 -56.6051 7.23713 -4.46378e-006 -1.13189e-006 -1.11445 54.7583 86.3846 -73.4298 -8.15765 25.5845 3.05466 
42.7445 83.1593 0.244551 -0.978216 2.20562 8.26791 -0.199548 -1.5848 0.333905 -0.392882 0.832057 0.68808 -0.40136 2.47705 0.694965 -3.02186 7.45918 -3.5043 4.19049 -2.8585 -3.55926 -2.43209 -16.5766 -18.5828 3.40476 18.4571 73.0474 -3.51708e-006 7.00638e-007 -3.04664e-007 -6.18492 11.0303 1.40815 3.48565e-006 -1.89985e-008 -3.00029 8.02891 -4.95145 0.697688 -13.341 -12.1637 9.03407 6.83983 9.66778 -70.4229 -1.83608e-005 1.50432e-006 5.40462e-007 8.6254 13.0621 -0.195447 6.56333e-006 -2.52915e-006 2.99999 -8.02889 -4.95146 -0.69769 147.843 15.6347 16.3688 180 7.01662e-015 179.719 -174.283 50.9236 175.441 -7.54518e-008 2.19112e-006 2.18807 -77.0524 86.3046 93.3111 8.16338 25.703 -2.9403 -148.761 25.879 -14.6312 4.54188e-006 -4.6773e-006 -0.193784 9.00881 -56.5198 7.24382 -4.46378e-006 -1.13188e-006 -1.09932 54.1167 86.3622 -72.7903 -8.15767 25.5841 3.0554 
42.7525 83.237 0.245981 -0.987592 2.26887 8.36503 -0.201184 -1.59468 0.329277 -0.396161 0.812303 0.678969 -0.404528 2.4573 0.685901 -3.0745 7.49953 -3.53917 4.30932 -2.89012 -3.58917 -2.4665 -16.5752 -18.588 3.36039 18.3831 72.9721 -3.51708e-006 7.00638e-007 -3.04664e-007 -6.15176 11.0788 1.40578 3.48565e-006 -1.89985e-008 -3.00028 8.02891 -4.95145 0.697688 -13.3204 -12.1701 9.04385 6.9435 9.68549 -70.483 -1.83608e-005 1.50432e-006 5.40462e-007 8.62607 13.0128 -0.192838 6.56333e-006 -2.52915e-006 2.99999 -8.02889 -4.95146 -0.69769 147.891 15.6242 16.3643 180 7.01661e-015 179.696 -174.343 50.8579 175.534 -7.54501e-008 2.19116e-006 2.26464 -77.6774 86.2599 93.7085 8.1624 25.6872 -2.95792 -148.855 25.9908 -14.5393 4.54188e-006 -4.67729e-006 -0.197462 9.03269 -56.4207 7.24741 -4.46378e-006 -1.13188e-006 -1.09526 53.3706 86.3241 -72.0013 -8.15773 25.5844 3.05568 
42.8006 83.3178 0.27469 -1.0009 2.33473 8.46524 -0.2009 -1.60602 0.323602 -0.395611 0.78965 0.667561 -0.403839 2.43465 0.674477 -3.14535 7.53911 -3.56852 4.43958 -2.91467 -3.61566 -2.4946 -16.5662 -18.5771 3.32941 18.298 72.8665 -3.51708e-006 7.00638e-007 -3.04664e-007 -6.10602 11.1434 1.40179 3.48565e-006 -1.89985e-008 -3.00028 8.02891 -4.95145 0.697688 -13.3171 -12.1742 9.04972 7.04851 9.70384 -70.5348 -1.83608e-005 1.50432e-006 5.40462e-007 8.61947 12.9598 -0.188769 6.56333e-006 -2.52915e-006 2.99999 -8.02889 -4.95146 -0.69769 147.957 15.6093 16.3517 180 7.01659e-015 179.669 -174.41 50.776 175.641 -7.54485e-008 2.19119e-006 2.35441 -78.3495 86.206 94.1107 8.16122 25.6679 -2.97941 -148.96 26.1094 -14.4349 4.54188e-006 -4.67729e-006 -0.204957 9.06376 -56.3065 7.2463 -4.46378e-006 -1.13188e-006 -1.10107 52.537 86.2712 -71.0833 -8.15783 25.5852 3.05561 
42.8006 83.3885 0.249 -1.01739 2.40174 8.56766 -0.199007 -1.6185 0.317108 -0.391858 0.764725 0.654349 -0.399923 2.40973 0.661191 -3.23113 7.57758 -3.59308 4.57881 -2.93132 -3.63923 -2.5166 -16.5509 -18.5523 3.31049 18.2038 72.7355 -3.51708e-006 7.00638e-007 -3.04664e-007 -6.04949 11.2208 1.3963 3.48565e-006 -1.89985e-008 -3.00028 8.02891 -4.95145 0.697688 -13.329 -12.1766 9.05259 7.15307 9.72397 -70.5791 -1.83608e-005 1.50432e-006 5.40462e-007 8.6064 12.9051 -0.1835 6.56333e-006 -2.52915e-006 2.99999 -8.02889 -4.95146 -0.69769 148.038 15.5884 16.3311 180 7.01657e-015 179.637 -174.484 50.6768 175.761 -7.54471e-008 2.19122e-006 2.45486 -79.0127 86.144 94.4665 8.15988 25.6464 -3.00332 -149.075 26.23 -14.32 4.54188e-006 -4.67729e-006 -0.215904 9.09819 -56.176 7.2389 -4.46378e-006 -1.13187e-006 -1.11553 51.635 86.2043 -70.0589 -8.15796 25.5864 3.05527 
42.8166 83.4856 0.187854 -1.03633 2.46845 8.67139 -0.195818 -1.6318 0.310022 -0.385526 0.738151 0.63982 -0.393409 2.38316 0.646546 -3.32859 7.61458 -3.61359 4.72458 -2.93922 -3.66037 -2.53272 -16.5303 -18.5157 3.30236 18.1029 72.5835 -3.51708e-006 7.00638e-007 -3.04664e-007 -5.98395 11.3076 1.3894 3.48565e-006 -1.89985e-008 -3.00028 8.02891 -4.95145 0.697688 -13.3539 -12.1779 9.05336 7.25537 9.74703 -70.6167 -1.83608e-005 1.50432e-006 5.40462e-007 8.58761 12.8508 -0.177287 6.56333e-006 -2.52915e-006 2.99999 -8.02889 -4.95146 -0.69769 148.134 15.5598 16.3029 180 7.01654e-015 179.603 -174.563 50.5591 175.891 -7.54461e-008 2.19124e-006 2.56346 -79.6144 86.0753 94.7282 8.15848 25.624 -3.02822 -149.198 26.348 -14.1964 4.54188e-006 -4.67729e-006 -0.229939 9.13215 -56.0279 7.22367 -4.46378e-006 -1.13188e-006 -1.13745 50.6828 86.1242 -68.9497 -8.15811 25.5879 3.05478 
42.8297 83.5728 0.19609 -1.05695 2.5334 8.77555 -0.191643 -1.64562 0.302575 -0.377236 0.710552 0.624465 -0.384928 2.35556 0.631042 -3.43444 7.64974 -3.63077 4.87443 -2.93755 -3.67957 -2.54318 -16.5055 -18.4696 3.30376 17.9975 72.4153 -3.51708e-006 7.00638e-007 -3.04664e-007 -5.91119 11.4006 1.3812 3.48565e-006 -1.89985e-008 -3.00028 8.02891 -4.95145 0.697688 -13.3897 -12.1786 9.05294 7.3536 9.77416 -70.6483 -1.83608e-005 1.50432e-006 5.40462e-007 8.56389 12.7988 -0.170388 6.56333e-006 -2.52915e-006 2.99999 -8.02889 -4.95146 -0.69769 148.243 15.5217 16.2671 180 7.01651e-015 179.566 -174.646 50.4218 176.03 -7.54455e-008 2.19126e-006 2.67771 -80.1071 86.0011 94.8534 8.15708 25.6023 -3.05266 -149.33 26.4584 -14.066 4.54188e-006 -4.67729e-006 -0.246697 9.1619 -55.861 7.19911 -4.46378e-006 -1.13188e-006 -1.16562 49.6983 86.0318 -67.7771 -8.15826 25.5896 3.05423 
42.8398 83.7091 0.243375 -1.07847 2.59515 8.87926 -0.186795 -1.65965 0.294994 -0.367609 0.682554 0.608773 -0.375104 2.32757 0.615179 -3.5454 7.6827 -3.64536 5.02593 -2.92548 -3.69732 -2.54821 -16.4776 -18.4161 3.31348 17.8901 72.2352 -3.51708e-006 7.00638e-007 -3.04664e-007 -5.83299 11.4964 1.37178 3.48565e-006 -1.89985e-008 -3.00027 8.02891 -4.95145 0.697688 -13.4343 -12.1794 9.05223 7.44598 9.80647 -70.6747 -1.83608e-005 1.50432e-006 5.40462e-007 8.536 12.7511 -0.163058 6.56333e-006 -2.52915e-006 2.99999 -8.02889 -4.95146 -0.69769 148.363 15.4724 16.2239 180 7.01647e-015 179.527 -174.734 50.2637 176.175 -7.54454e-008 2.19126e-006 2.79507 -80.4474 85.9226 94.8036 8.15576 25.5825 -3.07522 -149.468 26.5567 -13.9307 4.54188e-006 -4.67729e-006 -0.265813 9.18376 -55.674 7.1638 -4.46378e-006 -1.13188e-006 -1.19884 48.6971 85.928 -66.5599 -8.15842 25.5913 3.05374 
42.8641 83.8105 0.217224 -1.1001 2.65223 8.98161 -0.181584 -1.67356 0.287508 -0.357265 0.65478 0.593235 -0.364565 2.2998 0.599457 -3.65821 7.71312 -3.65808 5.17663 -2.90218 -3.7141 -2.548 -16.4477 -18.3575 3.33042 17.783 72.0478 -3.51708e-006 7.00638e-007 -3.04664e-007 -5.75114 11.5917 1.36126 3.48565e-006 -1.89985e-008 -3.00027 8.02891 -4.95145 0.697688 -13.4856 -12.1809 9.05213 7.5307 9.84508 -70.6968 -1.83608e-005 1.50432e-006 5.40462e-007 8.50472 12.7098 -0.155553 6.56333e-006 -2.52915e-006 2.99999 -8.02889 -4.95146 -0.69769 148.492 15.4101 16.1736 180 7.01643e-015 179.486 -174.826 50.0838 176.324 -7.54457e-008 2.19126e-006 2.91302 -80.5956 85.8409 94.5439 8.1546 25.5659 -3.09445 -149.612 26.6379 -13.7925 4.54188e-006 -4.67729e-006 -0.286923 9.19411 -55.4655 7.11635 -4.46378e-006 -1.13188e-006 -1.2359 47.6927 85.8137 -65.3152 -8.15857 25.593 3.05339 
42.7995 83.966 0.110064 -1.12103 2.70321 9.08172 -0.176321 -1.68704 0.280346 -0.34682 0.627856 0.578339 -0.353933 2.27288 0.584377 -3.76957 7.74063 -3.66968 5.32408 -2.86681 -3.73042 -2.54276 -16.4168 -18.296 3.35351 17.679 71.8573 -3.51708e-006 7.00638e-007 -3.04664e-007 -5.66743 11.6832 1.34974 3.48565e-006 -1.89985e-008 -3.00027 8.02891 -4.95145 0.697688 -13.5413 -12.1836 9.05355 7.60598 9.89111 -70.7153 -1.83608e-005 1.50432e-006 5.40462e-007 8.47079 12.6768 -0.148129 6.56333e-006 -2.52915e-006 2.99999 -8.02889 -4.95146 -0.69769 148.629 15.3333 16.1164 180 7.01638e-015 179.445 -174.92 49.8808 176.476 -7.54465e-008 2.19124e-006 3.02906 -80.5155 85.7569 94.0433 8.15369 25.554 -3.10893 -149.761 26.6974 -13.6534 4.54188e-006 -4.67729e-006 -0.309662 9.18943 -55.2344 7.05548 -4.46378e-006 -1.13189e-006 -1.27559 46.696 85.6899 -64.0574 -8.15871 25.5945 3.0533 
42.8371 84.0645 0.126932 -1.14044 2.74665 9.1787 -0.171317 -1.69979 0.273736 -0.33689 0.602405 0.564576 -0.343831 2.24743 0.570439 -3.87622 7.76486 -3.68087 5.46584 -2.81854 -3.74675 -2.53269 -16.3861 -18.2337 3.38175 17.5811 71.6681 -3.51708e-006 7.00638e-007 -3.04664e-007 -5.58365 11.7676 1.3373 3.48565e-006 -1.89985e-008 -3.00027 8.02891 -4.95145 0.697688 -13.5994 -12.1882 9.05739 7.67002 9.94567 -70.731 -1.83608e-005 1.50432e-006 5.40462e-007 8.43501 12.6541 -0.141042 6.56333e-006 -2.52915e-006 2.99999 -8.02889 -4.95146 -0.69769 148.773 15.2401 16.0525 180 -7.01633e-015 179.403 -175.015 49.6538 176.627 -7.54476e-008 2.19122e-006 3.14064 -80.1741 85.6714 93.2737 8.15312 25.5482 -3.11723 -149.913 26.7303 -13.5152 4.54188e-006 -4.67729e-006 -0.333665 9.16631 -54.9793 6.97998 -4.46378e-006 -1.13189e-006 -1.31672 45.7155 85.5576 -62.7983 -8.15883 25.5956 3.05357 
42.7935 84.273 0.110621 -1.1575 2.7811 9.27165 -0.16688 -1.71149 0.267907 -0.328091 0.579053 0.552435 -0.33488 2.22408 0.558143 -3.97485 7.78547 -3.6924 5.59947 -2.75654 -3.76361 -2.51798 -16.3567 -18.1729 3.41424 17.4921 71.4843 -3.51708e-006 7.00638e-007 -3.04664e-007 -5.50162 11.8416 1.32406 3.48565e-006 -1.89985e-008 -3.00026 8.02891 -4.95145 0.697688 -13.6578 -12.1951 9.06455 7.72103 10.0099 -70.7449 -1.83608e-005 1.50432e-006 5.40462e-007 8.39811 12.6436 -0.134545 6.56333e-006 -2.52915e-006 2.99999 -8.02889 -4.95146 -0.69769 148.922 15.1289 15.9821 180 7.01627e-015 179.361 -175.113 49.4017 176.777 -7.5449e-008 2.19119e-006 3.24526 -79.5402 85.5844 92.2089 8.15298 25.5497 -3.11792 -150.067 26.7319 -13.3801 4.54188e-006 -4.67729e-006 -0.358568 9.12143 -54.6989 6.88873 -4.46378e-006 -1.13189e-006 -1.35808 44.757 85.418 -61.5471 -8.15891 25.5963 3.05429 
